<?xml version="1.0" standalone="no"?>
<!DOCTYPE svg PUBLIC "-//W3C//DTD SVG 20010904//EN"
 "http://www.w3.org/TR/2001/REC-SVG-20010904/DTD/svg10.dtd">
<svg version="1.0" xmlns="http://www.w3.org/2000/svg"
 width="2000.000000pt" height="1997.000000pt" viewBox="0 0 2000.000000 1997.000000"
 preserveAspectRatio="xMidYMid meet">

<g transform="translate(0.000000,1997.000000) scale(0.100000,-0.100000)"
fill="#000000" stroke="none">
<path d="M10540 14983 c0 -689 -1 -730 -19 -769 -22 -48 -70 -87 -126 -104
-28 -8 -180 -10 -525 -8 -469 3 -486 4 -525 24 -22 11 -53 40 -70 63 l-30 43
-3 730 c-2 686 -4 730 -20 723 -42 -15 -168 -93 -244 -150 -113 -85 -281 -261
-357 -374 -113 -169 -189 -348 -234 -549 -18 -82 -21 -129 -21 -302 0 -190 2
-214 28 -325 49 -209 132 -397 207 -466 22 -20 39 -44 39 -54 0 -51 199 -262
357 -380 108 -80 342 -199 482 -244 116 -38 163 -71 192 -136 18 -38 19 -144
19 -2544 0 -1948 -3 -2513 -12 -2545 -23 -74 -69 -108 -214 -155 -429 -139
-757 -426 -944 -823 -139 -297 -179 -628 -115 -938 41 -198 143 -431 263 -600
82 -115 230 -265 339 -343 381 -272 892 -356 1340 -221 657 197 1109 801 1106
1474 -2 341 -87 618 -278 906 -141 211 -506 458 -844 569 -84 28 -124 47 -152
72 -75 67 -69 -146 -69 2618 0 2181 2 2488 15 2532 21 72 73 116 167 143 239
68 440 177 622 338 95 84 214 226 256 306 132 255 167 340 216 531 27 103 28
122 28 315 0 173 -3 220 -21 302 -88 390 -299 714 -613 939 -75 54 -208 129
-229 129 -8 0 -11 -204 -11 -727z m-570 -8543 c120 -23 246 -114 303 -218 78
-144 65 -324 -33 -467 -44 -63 -138 -130 -217 -155 -287 -88 -562 116 -564
420 -2 266 247 470 511 420z"/>
<path d="M7617 12242 l-787 -787 0 -1270 0 -1270 797 -797 797 -797 99 96
c181 173 400 320 612 408 l100 42 3 360 2 361 -122 61 c-671 336 -1053 1081
-933 1819 64 392 268 767 555 1019 110 96 279 209 403 269 l97 47 0 327 0 328
-72 28 c-253 95 -505 264 -689 462 l-75 81 -787 -787z"/>
<path d="M11300 12947 c-190 -203 -426 -361 -687 -462 l-73 -28 0 -326 0 -326
108 -54 c299 -149 543 -369 710 -643 310 -507 344 -1110 93 -1652 -164 -354
-470 -660 -829 -828 l-82 -39 2 -360 3 -359 110 -48 c214 -92 423 -233 601
-404 l100 -97 797 797 797 797 0 1270 0 1270 -787 786 -788 786 -75 -80z"/>
<path d="M9170 11283 c-93 -61 -212 -166 -275 -242 -302 -361 -392 -830 -245
-1272 71 -213 141 -322 324 -505 99 -98 238 -214 259 -214 4 0 7 511 7 1135 0
624 -3 1135 -8 1135 -4 0 -32 -16 -62 -37z"/>
<path d="M10540 10184 c0 -1035 1 -1136 16 -1130 41 16 176 119 250 191 186
183 308 403 370 670 15 64 19 119 19 275 -1 171 -3 207 -24 290 -75 300 -237
557 -465 734 -81 64 -145 106 -158 106 -5 0 -8 -511 -8 -1136z"/>
</g>
</svg>
